<?xml version="1.0" encoding="UTF-8" standalone="no"?>
<!-- Created with Inkscape (http://www.inkscape.org/) -->

<svg
   width="100.54166mm"
   height="100.54166mm"
   viewBox="0 0 100.54166 100.54165"
   version="1.1"
   id="svg1"
   xml:space="preserve"
   inkscape:version="1.4 (e7c3feb100, 2024-10-09)"
   sodipodi:docname="WIP.svg"
   xmlns:inkscape="http://www.inkscape.org/namespaces/inkscape"
   xmlns:sodipodi="http://sodipodi.sourceforge.net/DTD/sodipodi-0.dtd"
   xmlns="http://www.w3.org/2000/svg"
   xmlns:svg="http://www.w3.org/2000/svg"><sodipodi:namedview
     id="namedview1"
     pagecolor="#ffffff"
     bordercolor="#000000"
     borderopacity="0.25"
     inkscape:showpageshadow="2"
     inkscape:pageopacity="0.0"
     inkscape:pagecheckerboard="0"
     inkscape:deskcolor="#d1d1d1"
     inkscape:document-units="mm"
     inkscape:clip-to-page="false"
     showguides="true"
     inkscape:zoom="2"
     inkscape:cx="156.25"
     inkscape:cy="188.25"
     inkscape:window-width="1900"
     inkscape:window-height="1022"
     inkscape:window-x="7"
     inkscape:window-y="45"
     inkscape:window-maximized="1"
     inkscape:current-layer="layer1" /><defs
     id="defs1" /><g
     inkscape:label="Capa 1"
     inkscape:groupmode="layer"
     id="layer1"
     transform="translate(-67.049484,-42.071331)"><path
       id="path47"
       style="display:inline;opacity:1;fill:#008000;stroke-width:0.264583"
       d="m 117.84948,81.964503 c -3.65524,-0.393173 -7.4409,-0.845365 -11.16417,-2.336291 -0.93746,3.981133 -1.47103,8.565372 -1.46916,13.52889 l 12.63333,0.01292 z" /><path
       id="path58"
       style="display:inline;opacity:1;fill:#008000;stroke-width:0.264583"
       d="m 117.84948,64.571766 c -4.5836,0.110838 -8.61355,5.447325 -10.82828,13.713375 3.51862,1.432519 7.24692,1.911613 10.82828,2.073775 z" /><path
       id="path52"
       style="display:inline;opacity:1;fill:#008000;stroke-width:0.264583"
       d="m 105.01099,78.828777 c -2.50008,-1.238471 -4.9574,-3.019889 -7.311697,-5.649267 a 28.839582,30.625521 0 0 0 -8.1995,19.961572 l 13.990877,0.01447 c 0.083,-5.152356 0.53697,-9.998883 1.52032,-14.326774 z" /><path
       id="path56"
       style="display:inline;opacity:1;fill:#008000;stroke-width:0.264583"
       d="m 112.3971,64.58882 a 28.839582,30.625521 0 0 0 -13.663245,7.519954 c 1.995725,2.423893 4.236255,4.142967 6.606315,5.356779 1.37905,-5.292966 3.62389,-9.728607 7.05693,-12.876733 z" /><path
       id="path47-2"
       style="display:inline;opacity:1;fill:#008000;stroke-width:0.264583"
       d="m 119.1156,81.96144 c 3.65524,-0.393173 7.4409,-0.845365 11.16416,-2.336291 0.93746,3.981133 1.47103,8.565372 1.46916,13.52889 l -12.63332,0.01292 z" /><path
       id="path58-0"
       style="display:inline;opacity:1;fill:#008000;stroke-width:0.264583"
       d="m 119.1156,64.568703 c 4.5836,0.110838 8.61354,5.447325 10.82827,13.713375 -3.51861,1.432519 -7.24691,1.911613 -10.82827,2.073775 z" /><path
       id="path52-2"
       style="display:inline;opacity:1;fill:#008000;stroke-width:0.264583"
       d="m 131.95408,78.825714 c 2.50008,-1.238471 4.9574,-3.019889 7.3117,-5.649267 a 28.839582,30.625521 0 0 1 8.1995,19.961572 l -13.99088,0.01447 c -0.083,-5.152356 -0.53697,-9.998883 -1.52032,-14.326775 z" /><path
       id="path56-3"
       style="display:inline;opacity:1;fill:#008000;stroke-width:0.264583"
       d="m 124.56798,64.585757 a 28.839582,30.625521 0 0 1 13.66324,7.519954 c -1.99573,2.423893 -4.23626,4.142967 -6.60632,5.356779 -1.37905,-5.292966 -3.62389,-9.728607 -7.05692,-12.876733 z" /><path
       id="path47-22"
       style="display:inline;opacity:1;fill:#008000;stroke-width:0.264583"
       d="m 119.12223,106.12524 c 3.65524,0.39317 7.4409,0.84536 11.16417,2.33629 0.93746,-3.98114 1.47103,-8.565387 1.46916,-13.528902 l -12.63333,-0.01292 z" /><path
       id="path58-8"
       style="display:inline;opacity:1;fill:#008000;stroke-width:0.264583"
       d="m 119.12223,123.51797 c 4.5836,-0.11084 8.61355,-5.44732 10.82828,-13.71337 -3.51862,-1.43252 -7.24692,-1.91161 -10.82828,-2.07378 z" /><path
       id="path52-9"
       style="display:inline;opacity:1;fill:#008000;stroke-width:0.264583"
       d="m 131.96072,109.26096 c 2.50008,1.23847 4.9574,3.01989 7.3117,5.64927 a 28.839582,30.625521 0 0 0 8.1995,-19.961582 l -13.99088,-0.01447 c -0.083,5.152352 -0.53697,9.998892 -1.52032,14.326782 z" /><path
       id="path56-7"
       style="display:inline;opacity:1;fill:#008000;stroke-width:0.264583"
       d="m 124.57461,123.50092 a 28.839582,30.625521 0 0 0 13.66324,-7.51996 c -1.99572,-2.42389 -4.23625,-4.14296 -6.60631,-5.35677 -1.37905,5.29296 -3.62389,9.7286 -7.05693,12.87673 z" /><path
       id="path47-2-3"
       style="display:inline;opacity:1;fill:#008000;stroke-width:0.264583"
       d="m 117.85611,106.1283 c -3.65524,0.39317 -7.4409,0.84536 -11.16416,2.33629 -0.93746,-3.98113 -1.47103,-8.565377 -1.46916,-13.528899 l 12.63332,-0.01292 z" /><path
       id="path58-0-6"
       style="display:inline;opacity:1;fill:#008000;stroke-width:0.264583"
       d="m 117.85611,123.52103 c -4.5836,-0.11083 -8.61354,-5.44732 -10.82827,-13.71337 3.51861,-1.43252 7.24691,-1.91161 10.82827,-2.07377 z" /><path
       id="path52-2-1"
       style="display:inline;opacity:1;fill:#008000;stroke-width:0.264583"
       d="m 105.01763,109.26403 c -2.50008,1.23847 -4.9574,3.01988 -7.311685,5.64926 a 28.839582,30.625521 0 0 1 -8.1995,-19.961579 l 13.990865,-0.01447 c 0.083,5.152359 0.53697,9.998889 1.52032,14.326789 z" /><path
       id="path56-3-2"
       style="display:inline;opacity:1;fill:#008000;stroke-width:0.264583"
       d="m 112.40373,123.50398 a 28.839582,30.625521 0 0 1 -13.663225,-7.51995 c 1.995715,-2.42389 4.236245,-4.14297 6.606305,-5.35678 1.37905,5.29296 3.62389,9.7286 7.05692,12.87673 z" /><path
       style="fill:#008000;stroke-width:0.264583"
       d="m 110.36051,47.122725 c 1.29631,0.514878 1.40616,0.560529 1.65592,1.265199 -0.2395,0.830631 -0.50346,1.413892 -1.09465,1.541131 -38.386265,9.848381 -36.121941,45.326369 -32.927609,55.378245 0.867265,-0.56657 1.813552,-1.13262 2.80633,-1.96443 0.793821,-0.0842 1.074586,0.43012 1.122532,1.21608 -0.718818,2.91954 -1.597198,4.72215 -2.432153,6.82873 -0.537106,0.93152 -1.273652,0.86584 -2.057975,0.56127 -2.254842,-0.7181 -4.323699,-1.71517 -6.080382,-3.18051 -0.730545,-0.79736 -0.385007,-1.41536 0.374178,-1.96443 0.986908,0.10443 1.882678,-0.26127 2.993418,-0.28068 -5.902231,-26.096528 6.281873,-52.349149 35.640391,-59.400605 z"
       id="path59"
       sodipodi:nodetypes="cccccccccccc" /><path
       style="fill:#008000;stroke-width:0.264583"
       d="M 155.06385,109.61232 C 167.9042,72.089245 137.68124,52.566843 128.20052,51.962416 c -0.003,1.035934 -0.0493,2.137606 0.1005,3.424086 -0.36542,0.709739 -0.94965,0.661763 -1.63277,0.270218 -2.04509,-2.204089 -3.06912,-3.928114 -4.37107,-5.782804 -0.48393,-0.960247 -0.0241,-1.539899 0.66115,-2.028071 1.83841,-1.490013 3.80787,-2.671373 5.9972,-3.334666 1.06758,-0.172549 1.39427,0.455517 1.43619,1.391529 -0.62919,0.767497 -0.81567,1.716807 -1.40936,2.65574 26.35554,8.9643 39.37761,33.65903 29.10913,62.079232 -1.53874,1.39229 -3.07256,1.10875 -3.02764,-1.02536 z"
       id="path59-9"
       sodipodi:nodetypes="ccccccccccc" /><path
       style="fill:#008000;stroke-width:0.264583"
       d="m 85.219801,120.17065 c 27.720229,29.15603 52.082779,11.54251 59.243789,4.45272 -0.8859,-0.53697 -1.80549,-1.14545 -2.9848,-1.68088 -0.41921,-0.67936 -0.0768,-1.15493 0.61107,-1.53804 2.94329,-0.61434 4.94849,-0.60186 7.20898,-0.75997 1.07219,0.0815 1.33146,0.77399 1.39601,1.6129 0.32756,2.34364 0.32321,4.64023 -0.23826,6.85783 -0.40304,1.00352 -1.1097,0.9592 -1.93308,0.51209 -0.33259,-0.93501 -1.04969,-1.58455 -1.54752,-2.57769 -20.53239,16.57246 -42.72207,17.90535 -64.275202,-5.32477 -1.703498,-2.75618 1.2388,-3.20661 2.519013,-1.55419 z"
       id="path59-9-4"
       sodipodi:nodetypes="ccccccccccc" /></g></svg>
